<?xml version="1.0" encoding="UTF-8" standalone="no"?>
<!-- Created with Inkscape (http://www.inkscape.org/) -->

<svg
   width="16.0px"
   height="16.0px"
   viewBox="0 0 16.0 16.0"
   version="1.1"
   id="SVGRoot"
   sodipodi:docname="my-target-monocolor.svg"
   inkscape:version="1.2.2 (b0a8486541, 2022-12-01)"
   xmlns:inkscape="http://www.inkscape.org/namespaces/inkscape"
   xmlns:sodipodi="http://sodipodi.sourceforge.net/DTD/sodipodi-0.dtd"
   xmlns="http://www.w3.org/2000/svg"
   xmlns:svg="http://www.w3.org/2000/svg">
  <sodipodi:namedview
     id="namedview137"
     pagecolor="#505050"
     bordercolor="#ffffff"
     borderopacity="1"
     inkscape:showpageshadow="0"
     inkscape:pageopacity="0"
     inkscape:pagecheckerboard="1"
     inkscape:deskcolor="#505050"
     inkscape:document-units="px"
     showgrid="true"
     inkscape:zoom="64"
     inkscape:cx="7.5390625"
     inkscape:cy="8.15625"
     inkscape:window-width="1920"
     inkscape:window-height="1011"
     inkscape:window-x="0"
     inkscape:window-y="32"
     inkscape:window-maximized="1"
     inkscape:current-layer="layer1">
    <inkscape:grid
       type="xygrid"
       id="grid260" />
  </sodipodi:namedview>
  <defs
     id="defs132">
    <inkscape:path-effect
       effect="powerclip"
       id="path-effect341"
       is_visible="true"
       lpeversion="1"
       inverse="true"
       flatten="false"
       hide_clip="false"
       message="Use fill-rule evenodd on &lt;b&gt;fill and stroke&lt;/b&gt; dialog if no flatten result after convert clip to paths." />
    <inkscape:path-effect
       effect="powerclip"
       id="path-effect333"
       is_visible="true"
       lpeversion="1"
       inverse="true"
       flatten="false"
       hide_clip="false"
       message="Use fill-rule evenodd on &lt;b&gt;fill and stroke&lt;/b&gt; dialog if no flatten result after convert clip to paths." />
    <inkscape:path-effect
       effect="powerclip"
       id="path-effect325"
       is_visible="true"
       lpeversion="1"
       inverse="true"
       flatten="false"
       hide_clip="false"
       message="Use fill-rule evenodd on &lt;b&gt;fill and stroke&lt;/b&gt; dialog if no flatten result after convert clip to paths." />
    <filter
       id="mask-powermask-path-effect303_inverse"
       inkscape:label="filtermask-powermask-path-effect303"
       style="color-interpolation-filters:sRGB"
       height="100"
       width="100"
       x="-50"
       y="-50">
      <feColorMatrix
         id="mask-powermask-path-effect303_primitive1"
         values="1"
         type="saturate"
         result="fbSourceGraphic" />
      <feColorMatrix
         id="mask-powermask-path-effect303_primitive2"
         values="-1 0 0 0 1 0 -1 0 0 1 0 0 -1 0 1 0 0 0 1 0 "
         in="fbSourceGraphic" />
    </filter>
    <clipPath
       clipPathUnits="userSpaceOnUse"
       id="clipPath321">
      <circle
         style="display:none;fill:#ff0000;stroke-linejoin:round"
         id="circle323"
         cx="8"
         cy="8"
         r="6"
         d="M 14,8 A 6,6 0 0 1 8,14 6,6 0 0 1 2,8 6,6 0 0 1 8,2 6,6 0 0 1 14,8 Z" />
      <path
         id="lpe_path-effect325"
         style="fill:#ff0000;stroke-linejoin:round"
         class="powerclip"
         d="M -4,-4 H 20 V 20 H -4 Z M 14,8 A 6,6 0 0 0 8,2 6,6 0 0 0 2,8 6,6 0 0 0 8,14 6,6 0 0 0 14,8 Z" />
    </clipPath>
    <clipPath
       clipPathUnits="userSpaceOnUse"
       id="clipPath329">
      <circle
         style="display:none;fill:#ff0000;stroke-linejoin:round"
         id="circle331"
         cx="8"
         cy="8"
         r="4"
         d="M 12,8 A 4,4 0 0 1 8,12 4,4 0 0 1 4,8 4,4 0 0 1 8,4 4,4 0 0 1 12,8 Z" />
      <path
         id="lpe_path-effect333"
         style="fill:#ff0000;stroke-linejoin:round"
         class="powerclip"
         d="M -2,-2 H 18 V 18 H -2 Z M 12,8 A 4,4 0 0 0 8,4 4,4 0 0 0 4,8 4,4 0 0 0 8,12 4,4 0 0 0 12,8 Z" />
    </clipPath>
    <clipPath
       clipPathUnits="userSpaceOnUse"
       id="clipPath337">
      <circle
         style="display:none;fill:#ff0000;stroke-linejoin:round"
         id="circle339"
         cx="8"
         cy="8"
         r="2"
         d="M 10,8 A 2,2 0 0 1 8,10 2,2 0 0 1 6,8 2,2 0 0 1 8,6 2,2 0 0 1 10,8 Z" />
      <path
         id="lpe_path-effect341"
         style="fill:#ff0000;stroke-linejoin:round"
         class="powerclip"
         d="M 0,0 H 16 V 16 H 0 Z M 10,8 A 2,2 0 0 0 8,6 2,2 0 0 0 6,8 2,2 0 0 0 8,10 2,2 0 0 0 10,8 Z" />
    </clipPath>
  </defs>
  <g
     inkscape:label="Layer 1"
     inkscape:groupmode="layer"
     id="layer1">
    <path
       style="fill:#000000;stroke-linejoin:round"
       id="path369"
       clip-path="url(#clipPath321)"
       inkscape:path-effect="#path-effect325"
       sodipodi:type="arc"
       sodipodi:cx="8"
       sodipodi:cy="8"
       sodipodi:rx="7"
       sodipodi:ry="7"
       d="M 15,8 A 7,7 0 0 1 8,15 7,7 0 0 1 1,8 7,7 0 0 1 8,1 7,7 0 0 1 15,8 Z" />
    <path
       style="fill:#000000;stroke-linejoin:round"
       id="path638"
       clip-path="url(#clipPath329)"
       inkscape:path-effect="#path-effect333"
       sodipodi:type="arc"
       sodipodi:cx="8"
       sodipodi:cy="8"
       sodipodi:rx="5"
       sodipodi:ry="5"
       d="M 13,8 A 5,5 0 0 1 8,13 5,5 0 0 1 3,8 5,5 0 0 1 8,3 5,5 0 0 1 13,8 Z" />
    <path
       style="fill:#000000;stroke-linejoin:round"
       id="path1197"
       clip-path="url(#clipPath337)"
       inkscape:path-effect="#path-effect341"
       sodipodi:type="arc"
       sodipodi:cx="8"
       sodipodi:cy="8"
       sodipodi:rx="3"
       sodipodi:ry="3"
       d="M 11,8 A 3,3 0 0 1 8,11 3,3 0 0 1 5,8 3,3 0 0 1 8,5 3,3 0 0 1 11,8 Z" />
    <circle
       style="fill:#000000;stroke-linejoin:round"
       id="path1201"
       cx="8"
       cy="8"
       r="1" />
  </g>
</svg>
